<svg width="32" height="32" viewBox="0 0 32 32" fill="none" xmlns="http://www.w3.org/2000/svg">
<g clip-path="url(#clip0_792_463498)">
<path d="M26 3H6C5.44772 3 5 3.44772 5 4V28C5 28.5523 5.44772 29 6 29H26C26.5523 29 27 28.5523 27 28V4C27 3.44772 26.5523 3 26 3Z" fill="white"/>
<path d="M26 29H6C5.44667 29 5 28.5533 5 28V4C5 3.44667 5.44667 3 6 3H26C26.5533 3 27 3.44667 27 4V8.20667C27 8.76 26.5533 9.20667 26 9.20667C25.4467 9.20667 25 8.76 25 8.20667V5H7V27H25V19.6333C25 19.08 25.4467 18.6333 26 18.6333C26.5533 18.6333 27 19.08 27 19.6333V28C27 28.5533 26.5533 29 26 29Z" fill="black"/>
<path d="M21 11H11C10.4467 11 10 10.5533 10 10C10 9.44667 10.4467 9 11 9H21C21.5533 9 22 9.44667 22 10C22 10.5533 21.5533 11 21 11Z" fill="black"/>
<path d="M16 16H11C10.4467 16 10 15.5533 10 15C10 14.4467 10.4467 14 11 14H16C16.5533 14 17 14.4467 17 15C17 15.5533 16.5533 16 16 16Z" fill="black"/>
<path d="M26.4666 10.4867L15.7932 21.1467C15.6666 21.2733 15.5732 21.44 15.5266 21.62L14.7799 24.6933C14.7332 24.8733 14.8999 25.04 15.0799 24.9933L18.1532 24.24C18.3332 24.1933 18.4932 24.1067 18.6199 23.9733L29.2866 13.3133C29.6799 12.92 29.6799 12.2933 29.2866 11.9L27.8732 10.4867C27.4799 10.0933 26.8466 10.0933 26.4599 10.4867H26.4666Z" fill="black"/>
</g>
<defs>
<clipPath id="clip0_792_463498">
<rect width="32" height="32" fill="white"/>
</clipPath>
</defs>
</svg>
