<svg width="32" height="32" viewBox="0 0 32 32" fill="none" xmlns="http://www.w3.org/2000/svg">
<g clip-path="url(#clip0_792_463512)">
<path d="M22.98 6.28C20.97 4.43 18.64 3.5 16 3.5C13.36 3.5 11.03 4.43 9.02 6.28C7.01 8.13 6 10.62 6 13.75C6 15.83 6.83 18.1 8.48 20.55C10.13 23 12.64 25.65 16 28.5C19.35 25.65 21.86 22.99 23.52 20.55C25.18 18.11 26 15.84 26 13.75C26 10.63 24.99 8.14 22.98 6.28ZM18.12 15.62C17.53 16.21 16.83 16.5 16 16.5C15.17 16.5 14.47 16.21 13.88 15.62C13.29 15.03 13 14.33 13 13.5C13 12.67 13.29 11.97 13.88 11.38C14.47 10.79 15.17 10.5 16 10.5C16.83 10.5 17.53 10.79 18.12 11.38C18.71 11.97 19 12.67 19 13.5C19 14.33 18.71 15.03 18.12 15.62Z" fill="white"/>
<path fill-rule="evenodd" clip-rule="evenodd" d="M15.9902 29.8015L16.0002 29.81H15.9802L15.9902 29.8015ZM15.3502 29.26L15.9902 29.8015L16.6302 29.26C20.0402 26.36 22.6302 23.62 24.3302 21.11C26.1002 18.5 26.9902 16.03 26.9902 13.75C26.9902 10.35 25.8602 7.59 23.6502 5.55C21.4602 3.52 18.8802 2.5 15.9902 2.5C13.1002 2.5 10.5202 3.53 8.33023 5.55C6.11023 7.59 4.99023 10.35 4.99023 13.75C4.99023 16.03 5.89023 18.51 7.65023 21.11C9.35023 23.62 11.9402 26.36 15.3502 29.26ZM9.69023 7.02C11.5302 5.32 13.5902 4.5 16.0002 4.5C18.4102 4.5 20.4702 5.33 22.3102 7.02C24.1202 8.69 25.0002 10.89 25.0002 13.75C25.0002 15.62 24.2202 17.72 22.6902 19.99C21.2002 22.19 18.9502 24.61 16.0002 27.18C13.0502 24.61 10.8002 22.19 9.31024 19.99C7.78024 17.72 7.00023 15.62 7.00023 13.75C7.00023 10.89 7.88023 8.69 9.69023 7.02ZM13.17 16.33C13.95 17.1 14.9 17.5 16 17.5C17.1 17.5 18.06 17.11 18.83 16.33C19.6 15.55 20 14.6 20 13.5C20 12.4 19.61 11.45 18.83 10.67C18.05 9.9 17.1 9.5 16 9.5C14.9 9.5 13.94 9.89 13.17 10.67C12.4 11.45 12 12.4 12 13.5C12 14.6 12.39 15.56 13.17 16.33ZM14.59 12.09C14.99 11.69 15.44 11.5 16 11.5C16.56 11.5 17.01 11.69 17.41 12.09C17.81 12.49 18 12.94 18 13.5C18 14.06 17.81 14.51 17.41 14.91C17.01 15.31 16.56 15.5 16 15.5C15.44 15.5 14.99 15.31 14.59 14.91C14.19 14.51 14 14.06 14 13.5C14 12.94 14.19 12.49 14.59 12.09Z" fill="black"/>
</g>
<defs>
<clipPath id="clip0_792_463512">
<rect width="32" height="32" fill="white"/>
</clipPath>
</defs>
</svg>
