<svg width="32" height="32" viewBox="0 0 32 32" fill="none" xmlns="http://www.w3.org/2000/svg">
<g clip-path="url(#clip0_792_463505)">
<circle cx="16" cy="16" r="14" fill="white"/>
<path d="M16.0001 16.2467C13.5534 16.2467 11.5601 14.2534 11.5601 11.8067C11.5601 9.36003 13.5534 7.3667 16.0001 7.3667C18.4467 7.3667 20.4401 9.36003 20.4401 11.8067C20.4401 14.2534 18.4467 16.2467 16.0001 16.2467ZM16.0001 9.3667C14.6534 9.3667 13.5601 10.46 13.5601 11.8067C13.5601 13.1534 14.6534 14.2467 16.0001 14.2467C17.3467 14.2467 18.4401 13.1534 18.4401 11.8067C18.4401 10.46 17.3467 9.3667 16.0001 9.3667Z" fill="black"/>
<path d="M22.7735 24.0801C22.3535 24.0801 21.9668 23.8135 21.8268 23.4001C20.9868 20.8935 18.6401 19.2068 16.0001 19.2068C13.3601 19.2068 11.0135 20.8935 10.1735 23.4001C10.0001 23.9201 9.43346 24.2068 8.9068 24.0268C8.38013 23.8535 8.10013 23.2868 8.28013 22.7601C9.40013 19.4401 12.5001 17.2068 16.0068 17.2068C19.5135 17.2068 22.6135 19.4401 23.7268 22.7601C23.9001 23.2868 23.6201 23.8535 23.1001 24.0268C22.9935 24.0601 22.8868 24.0801 22.7801 24.0801H22.7735Z" fill="black"/>
<path d="M16 30C8.28 30 2 23.72 2 16C2 8.28 8.28 2 16 2C23.72 2 30 8.28 30 16C30 23.72 23.72 30 16 30ZM16 4C9.38667 4 4 9.38667 4 16C4 22.6133 9.38 28 16 28C22.62 28 28 22.62 28 16C28 9.38 22.62 4 16 4Z" fill="black"/>
</g>
<defs>
<clipPath id="clip0_792_463505">
<rect width="32" height="32" fill="white"/>
</clipPath>
</defs>
</svg>
