<svg width="271" height="192" viewBox="0 0 271 192" fill="none" xmlns="http://www.w3.org/2000/svg">
<path fill-rule="evenodd" clip-rule="evenodd" d="M252.196 102.742C242.006 116.565 225.279 124.836 207.448 124.836C177.44 124.836 153.037 101.91 153.037 73.7364C153.037 45.5631 177.44 22.6372 207.448 22.6372C225.33 22.6372 242.074 30.9245 252.264 44.8159L252.535 45.1895L270.791 31.8075L270.52 31.4339C256.085 11.7516 232.513 0 207.448 0C164.959 0 130.4 33.0812 130.4 73.7364C130.4 114.392 164.959 147.473 207.448 147.473C232.429 147.473 255.966 135.772 270.418 116.175L270.689 115.801L252.467 102.368L252.196 102.742ZM170.156 178.907C170.156 183.645 174.232 187.466 179.275 187.466L179.292 187.449C182.57 187.449 185.423 185.835 187.036 183.407L190.704 186.107L190.45 186.447C187.885 189.928 183.708 192 179.275 192C171.735 192 165.605 186.124 165.605 178.89C165.605 171.655 171.735 165.78 179.275 165.78C183.725 165.78 187.902 167.868 190.466 171.367L190.721 171.706L187.036 174.406C185.423 171.978 182.553 170.348 179.275 170.348C174.249 170.348 170.156 174.169 170.156 178.907ZM33.8233 167.665C34.1629 167.002 34.8762 166.578 35.6743 166.578C36.4555 166.578 37.1858 167.002 37.5254 167.665L49.6506 191.27H45.0485L41.8898 185.088H29.4419L26.2832 191.27H21.6811L33.8233 167.665ZM35.6743 172.929L31.6835 180.741H39.6651L35.6743 172.929ZM95.0094 167.223H99.6285V191.27H95.0094V167.223ZM110.378 182.779V167.24H105.759V182.796C105.759 187.483 109.784 191.287 114.726 191.287H121.909V186.905H114.726C112.331 186.905 110.378 185.054 110.378 182.779ZM126.494 167.223L135.002 180.079L144.122 167.223H149.607L132.54 191.287H127.055L132.183 184.052L121.043 167.223H126.494ZM78.7665 166.663C75.5605 166.665 72.8127 168.108 70.9802 170.433C69.1631 168.106 66.395 166.663 63.1854 166.663C57.4285 166.663 53.098 171.282 53.098 177.429V191.287H57.7002V177.429C57.7002 173.795 59.9588 171.265 63.1854 171.265C66.9554 171.265 68.6706 174.457 68.6706 177.429V191.287H73.2728V177.429C73.2728 174.457 74.988 171.265 78.758 171.265C81.9846 171.265 84.2432 173.795 84.2432 177.429V191.287H88.8454V177.429C88.8454 171.302 84.5192 166.667 78.7665 166.663ZM21.4599 171.723H9.50447V171.74C7.22887 171.74 5.37781 173.591 5.37781 175.867V180.13L21.4769 177.073V181.624L5.37781 184.681V191.27H0.894531V175.85C0.894531 171.095 4.74948 167.24 9.50447 167.24H21.4599V171.723ZM200.01 182.779V167.24H195.391V182.796C195.391 187.483 199.415 191.287 204.357 191.287H211.541V186.905H204.357C201.963 186.905 200.01 185.054 200.01 182.779ZM226.893 187.449C231.801 187.449 234.976 184.137 234.976 179.026V167.223H239.596V179.026C239.596 186.549 234.382 191.813 226.893 191.813C219.404 191.813 214.19 186.566 214.19 179.026V167.223H218.809V179.026C218.809 184.137 221.985 187.449 226.893 187.449ZM263.676 178.228C264.457 177.107 264.916 175.748 264.916 174.288C264.916 170.399 261.689 167.24 257.732 167.24H244.35V191.27H259.736C263.965 191.27 267.395 188.111 267.395 184.239C267.395 181.692 265.901 179.45 263.693 178.228H263.676ZM248.443 171.367H257.715C259.413 171.367 260.772 172.674 260.772 174.288C260.772 175.901 259.396 177.209 257.715 177.209H248.443V171.384V171.367ZM259.719 187.16H248.443V181.335H259.719C261.672 181.335 263.251 182.643 263.251 184.256C263.251 185.869 261.672 187.177 259.719 187.177V187.16ZM23.5317 81.0557L119.922 62.732V85.7767L23.5317 104.1V143.244H0.894531V52.9673C0.894531 25.694 23.0902 3.49832 50.3635 3.49832H119.905V26.1355H50.3635C35.572 26.1355 23.5317 38.1758 23.5317 52.9673V81.0557Z" fill="black"/>
</svg>
