<svg width="310" height="36" viewBox="0 0 310 36" fill="none" xmlns="http://www.w3.org/2000/svg">
<g clip-path="url(#clip0_1150_226926)">
<path d="M11.97 9.25001C9.33 9.25001 7.19 11.4 7.19 14.03V18.97L25.82 15.43V20.71L7.19 24.25V31.89H2V14.04C2 8.54001 6.47 4.07001 11.97 4.07001H25.82V9.25001H11.97Z" fill="black"/>
<path d="M59.3917 31.87H54.0717L50.4117 24.71H35.9917L32.3317 31.87H27.0117L41.0617 4.54003C41.4617 3.77003 42.3017 3.28003 43.2117 3.28003C44.1217 3.28003 44.9617 3.77003 45.3617 4.54003L59.4017 31.87H59.3917ZM47.8217 19.68L43.1917 10.64L38.5617 19.68H47.8217Z" fill="black"/>
<path d="M92.71 3.37C99.37 3.37 104.39 8.73 104.39 15.83V31.87H99.07V15.83C99.07 11.63 96.46 8.68999 92.71 8.68999C88.35 8.68999 86.36 12.38 86.36 15.82V31.87H81.04V15.83C81.04 12.39 79.05 8.68999 74.68 8.68999C70.94 8.68999 68.32 11.62 68.32 15.83V31.87H63V15.83C63 8.73 68.02 3.37 74.68 3.37C78.39 3.37 81.59 5.03999 83.7 7.74C85.81 5.03999 89.01 3.37 92.72 3.37H92.71Z" fill="black"/>
<path d="M110.398 31.89V4.03998H115.748V31.89H110.398Z" fill="black"/>
<path d="M132.142 26.82H140.472V31.88H132.142C126.422 31.88 121.762 27.47 121.762 22.05V4.03998H127.112V22.05C127.112 24.68 129.372 26.82 132.152 26.82H132.142Z" fill="black"/>
<path d="M173.539 4.03998L153.779 31.89H147.429L153.369 23.52L140.469 4.03998H146.779L156.629 18.92L167.179 4.03998H173.529H173.539Z" fill="black"/>
<path d="M211.878 22.87L216.128 26L215.848 26.39C212.878 30.42 208.048 32.82 202.908 32.82C194.178 32.82 187.078 26.01 187.078 17.65C187.078 9.28998 194.178 2.47998 202.908 2.47998C208.058 2.47998 212.898 4.88998 215.868 8.93998L216.158 9.32998L211.898 12.45C210.038 9.62998 206.718 7.73998 202.918 7.73998C197.088 7.73998 192.358 12.17 192.358 17.64C192.358 23.11 197.088 27.54 202.918 27.54C206.708 27.54 210.018 25.66 211.888 22.86L211.878 22.87Z" fill="black"/>
<path d="M232.54 26.82H240.87V31.88H232.54C226.81 31.88 222.16 27.47 222.16 22.05V4.03998H227.51V22.05C227.51 24.68 229.77 26.82 232.55 26.82H232.54Z" fill="black"/>
<path d="M274.681 4.34003V18C274.681 26.72 268.641 32.81 259.981 32.81C251.321 32.81 245.281 26.72 245.281 18V4.34003H250.631V18C250.631 23.92 254.301 27.75 259.991 27.75C265.681 27.75 269.351 23.92 269.351 18V4.34003H274.701H274.681Z" fill="black"/>
<path d="M303.062 16.75C305.632 18.18 307.352 20.76 307.352 23.72C307.352 28.21 303.372 31.87 298.482 31.87H280.672V4.03998H296.162C300.752 4.03998 304.482 7.69998 304.482 12.2C304.482 13.89 303.952 15.46 303.052 16.76L303.062 16.75ZM302.582 23.72C302.582 21.86 300.752 20.34 298.492 20.34H285.442V27.09H298.492C300.752 27.09 302.582 25.58 302.582 23.71V23.72ZM285.442 15.57H296.172C298.132 15.57 299.722 14.06 299.722 12.19C299.722 10.32 298.132 8.80998 296.172 8.80998H285.442V15.56V15.57Z" fill="black"/>
</g>
<defs>
<clipPath id="clip0_1150_226926">
<rect width="310" height="36" fill="white"/>
</clipPath>
</defs>
</svg>
