<svg width="656" height="44" viewBox="0 0 656 44" fill="none" xmlns="http://www.w3.org/2000/svg">
<g clip-path="url(#clip0_1063_167194)">
<path d="M38.8484 22.7332V38.9643H32.3095V22.7332C32.3095 15.4977 27.824 10.2055 20.8695 10.2055C13.9151 10.2055 9.42951 15.4977 9.42951 22.7332V38.9643H2.89062V22.7332C2.89062 12.0632 10.2851 4.00879 20.8695 4.00879C31.454 4.00879 38.8484 12.0755 38.8484 22.7332Z" fill="black"/>
<path d="M52.7298 18.321V20.9244L77.1865 16.6221V22.9044L53.072 27.1455C53.6953 29.5655 55.3698 32.4621 59.9287 32.4621H77.1865V38.9643H59.9287C57.2887 38.9643 54.832 38.2432 52.7298 37.0088C48.8187 34.711 46.2031 30.6288 46.2031 25.9599V17.9788C46.2031 13.3221 48.8187 9.22768 52.7298 6.94213C54.8198 5.70768 57.2887 4.98657 59.9287 4.98657H77.1865V11.4888H59.9287C55.9565 11.4888 52.7298 14.5443 52.7298 18.3088V18.321Z" fill="black"/>
<path d="M135.123 5.28003V24.8845C135.123 33.5623 128.988 40.1134 120.848 40.1134C116.313 40.1134 112.402 38.0723 109.823 34.7723C107.245 38.0723 103.333 40.1134 98.799 40.1134C90.659 40.1134 84.5234 33.5623 84.5234 24.8845V5.28003H91.0257V24.8845C91.0257 30.0178 94.2157 33.6111 98.799 33.6111C104.128 33.6111 106.56 29.1011 106.572 24.8967V5.28003H113.087V24.8845C113.087 29.0889 115.519 33.6111 120.848 33.6111C125.419 33.6111 128.621 30.03 128.621 24.8845V5.28003H135.123Z" fill="black"/>
<path d="M163.21 18.6511C167.549 19.3356 174.735 21.9145 174.735 29.3334C174.735 32.8289 172.645 40.1011 159.409 40.1011C148.287 40.1011 143.275 36.19 142.469 28.3556H150.047C150.401 30.2011 151.354 31.57 152.882 32.45C154.422 33.3423 156.61 33.7823 159.458 33.7823C162.147 33.7823 164.188 33.4156 165.593 32.6945C166.999 31.9611 167.708 30.91 167.708 29.5167C167.708 28.4534 167.268 27.5978 166.4 26.9745C165.532 26.3389 164.09 25.8867 162.085 25.5934L155.925 24.6767C151.208 23.9311 149.203 22.7211 147.064 21.0345C144.925 19.3478 143.862 17.0256 143.862 14.0434C143.862 10.78 146.539 3.70337 159.128 3.70337C170.421 3.70337 173.672 10.2545 174.418 13.6523H166.803C166.204 12.5156 165.398 11.6478 164.371 11.0856C163.075 10.3767 161.254 10.0223 158.883 10.0223C156.329 10.0223 154.349 10.3523 152.968 10.9878C151.574 11.6356 150.878 12.5767 150.878 13.7989C150.878 14.8989 151.293 15.73 152.112 16.2678C152.931 16.8056 154.434 17.2578 156.598 17.5756L163.21 18.6389V18.6511Z" fill="black"/>
<path d="M217.252 31.8144L221.725 35.7499L217.435 40.1255L214.038 37.021C213.255 37.6933 212.388 38.2433 211.471 38.6833C210.457 39.1599 209.43 39.5022 208.391 39.7099C207.658 39.881 206.937 39.991 206.252 40.0522C205.58 40.101 204.883 40.1377 204.174 40.1377C202.194 40.1377 200.312 39.8566 198.552 39.2944C196.768 38.7322 195.264 37.8155 194.079 36.581C193.125 35.5666 192.417 34.4422 191.964 33.2444C191.524 32.0588 191.268 30.7633 191.219 29.4066C191.219 28.0622 191.427 26.7666 191.83 25.5199C192.245 24.261 192.881 23.1366 193.737 22.171C194.067 21.7799 194.445 21.4377 194.849 21.1322C195.118 20.9366 195.387 20.741 195.668 20.5699C194.837 19.6288 194.189 18.7122 193.724 17.8199C193.211 16.8055 192.942 15.6077 192.942 14.251C192.942 12.2222 193.517 10.3766 194.665 8.76327C195.802 7.14993 197.379 5.9766 199.334 5.26771C200.178 4.96216 201.058 4.75438 201.925 4.64438C204.431 4.3266 206.778 4.47327 208.978 5.15771C210.444 5.62216 211.703 6.36771 212.73 7.4066C214.624 9.41104 215.284 12.821 215.309 12.9555L215.394 13.3833H208.953L208.868 13.1266C208.66 12.491 208.293 11.941 207.78 11.4888C207.34 11.0733 206.814 10.8044 206.215 10.6699C204.578 10.3033 202.94 10.4133 201.718 10.9633C200.997 11.2933 200.447 11.7333 200.117 12.271C199.774 12.821 199.603 13.4933 199.603 14.2999C199.603 15.0088 199.738 15.571 199.994 15.9744C200.288 16.4266 200.642 16.891 201.07 17.3555C201.351 17.6488 201.705 17.991 202.109 18.3577L211.654 26.8277C211.654 26.7544 211.654 26.681 211.654 26.5955V21.0833H217.533V27.5366C217.533 28.3799 217.509 29.211 217.46 29.9933C217.411 30.6899 217.338 31.301 217.215 31.7899L217.252 31.8144ZM208.538 33.171C208.794 33.0366 209.039 32.8899 209.259 32.7433L200.495 25.0188C200.165 25.1533 199.86 25.3122 199.591 25.4955C199.273 25.7155 199.004 25.9599 198.772 26.2288C198.503 26.571 198.271 26.9988 198.124 27.4755C197.965 27.9644 197.892 28.5022 197.892 29.0766C197.904 29.7366 198.014 30.3355 198.234 30.8366C198.442 31.3499 198.723 31.8144 199.078 32.2177C199.615 32.8777 200.398 33.3544 201.4 33.6355C202.977 34.0755 204.541 34.1488 205.824 34.0144C206.24 33.9655 206.655 33.8799 207.047 33.7455C207.633 33.5744 208.122 33.3788 208.525 33.1588L208.538 33.171Z" fill="black"/>
<path d="M238.289 38.9766V4.93774H244.828V38.9766H238.289Z" fill="black"/>
<path d="M288.122 22.7332V38.9643H281.583V22.7332C281.583 15.4977 277.097 10.2055 270.143 10.2055C263.189 10.2055 258.703 15.4977 258.703 22.7332V38.9643H252.164V22.7332C252.164 12.0632 259.559 4.00879 270.143 4.00879C280.727 4.00879 288.122 12.0755 288.122 22.7332Z" fill="black"/>
<path d="M307.673 11.3055C304.447 11.3055 301.831 13.9333 301.831 17.1477V23.1855L324.601 18.8588V25.3121L301.831 29.6388V38.9766H295.5V17.1599C295.5 10.4377 300.963 4.97437 307.686 4.97437H324.613V11.3055H307.686H307.673Z" fill="black"/>
<path d="M370.414 21.9511C370.414 31.9977 361.797 40.1377 351.164 40.1377C340.531 40.1377 331.914 31.9977 331.914 21.9511C331.914 11.9044 340.531 3.7644 351.164 3.7644C361.797 3.7644 370.414 11.9044 370.414 21.9511ZM363.875 21.9511C363.875 15.5222 358.167 9.97329 351.164 9.97329C344.161 9.97329 338.453 15.5222 338.453 21.9511C338.453 28.38 344.161 33.9289 351.164 33.9289C358.167 33.9289 363.875 28.38 363.875 21.9511Z" fill="black"/>
<path d="M405.86 24.7744C404.711 25.6178 403.281 26.2533 401.607 26.7055L408.732 38.9644H401.546L394.897 27.5244C394.481 27.5366 394.726 27.5489 394.286 27.5489H384.312V38.9644H377.773V4.92554H394.86C404.736 4.92554 409.673 8.67776 409.673 16.17C409.673 20.0444 408.402 22.9166 405.86 24.7744ZM401.289 19.9711C402.45 19.1644 403.025 17.8811 403.025 16.1211C403.025 14.4466 402.462 13.2366 401.338 12.4789C400.213 11.7211 398.453 11.3422 396.082 11.3422H384.312V21.1689H395.985C398.368 21.1689 400.14 20.7655 401.289 19.9589V19.9711Z" fill="black"/>
<path d="M467.616 19.3478V38.9522H461.113V19.3478C461.113 14.2145 457.923 10.6211 453.34 10.6211C448.011 10.6211 445.579 15.1311 445.567 19.3356V38.9522H439.065V19.3478C439.065 15.1433 436.632 10.6211 431.291 10.6211C426.72 10.6211 423.518 14.2022 423.518 19.3478V38.9522H417.016V19.3478C417.016 10.67 423.151 4.1189 431.291 4.1189C435.826 4.1189 439.737 6.16001 442.316 9.46001C444.895 6.16001 448.806 4.1189 453.34 4.1189C461.48 4.1189 467.616 10.67 467.616 19.3478Z" fill="black"/>
<path d="M514.549 38.9521H508.047L503.573 30.201H485.949L481.475 38.9521H474.961L492.133 5.54879C492.622 4.60768 493.649 4.00879 494.761 4.00879C495.873 4.00879 496.9 4.60768 497.389 5.54879L514.549 38.9521ZM500.408 24.0532L494.749 13.0043L489.09 24.0532H500.408Z" fill="black"/>
<path d="M549.587 3.71558V10.01L535.825 12.43V38.9767H529.286V13.5789L515.523 15.9989V9.70446L549.575 3.71558H549.587Z" fill="black"/>
<path d="M556.945 38.9766V4.93774H563.484V38.9766H556.945Z" fill="black"/>
<path d="M609.328 21.9511C609.328 31.9977 600.711 40.1377 590.078 40.1377C579.445 40.1377 570.828 31.9977 570.828 21.9511C570.828 11.9044 579.445 3.7644 590.078 3.7644C600.711 3.7644 609.328 11.9044 609.328 21.9511ZM602.789 21.9511C602.789 15.5222 597.081 9.97329 590.078 9.97329C583.075 9.97329 577.367 15.5222 577.367 21.9511C577.367 28.38 583.075 33.9289 590.078 33.9289C597.081 33.9289 602.789 28.38 602.789 21.9511Z" fill="black"/>
<path d="M652.637 22.7332V38.9643H646.099V22.7332C646.099 15.4977 641.613 10.2055 634.659 10.2055C627.704 10.2055 623.219 15.4977 623.219 22.7332V38.9643H616.68V22.7332C616.68 12.0632 624.074 4.00879 634.659 4.00879C645.243 4.00879 652.637 12.0755 652.637 22.7332Z" fill="black"/>
</g>
<defs>
<clipPath id="clip0_1063_167194">
<rect width="655.111" height="44" fill="white" transform="translate(0.445312)"/>
</clipPath>
</defs>
</svg>
