<svg width="232" height="36" viewBox="0 0 232 36" fill="none" xmlns="http://www.w3.org/2000/svg">
<g clip-path="url(#clip0_911_538990)">
<mask id="path-1-inside-1_911_538990" fill="white">
<path fill-rule="evenodd" clip-rule="evenodd" d="M52.803 18C52.803 27.93 61.3703 36 71.8882 36H71.9032C78.0999 36 83.9515 33.12 87.5225 28.305L82.2261 24.78C79.8554 27.96 75.9993 29.865 71.8882 29.865C64.9413 29.865 59.2848 24.54 59.2848 18C59.2848 11.46 64.9413 6.135 71.8882 6.135C76.0144 6.135 79.8704 8.04 82.2411 11.235L87.5375 7.725C83.9665 2.895 78.1149 0 71.8882 0C61.3703 0 52.803 8.07 52.803 18ZM39.4341 1.1543H45.9009V34.8593H39.4341V1.1543ZM25.9305 12.7043C25.9305 10.9793 25.3753 9.7343 24.265 8.9543C23.1547 8.1743 21.4142 7.7843 19.0586 7.7843H7.41537V17.9243H18.9685C21.3242 17.9243 23.0797 17.5043 24.22 16.6793C25.3603 15.8543 25.9455 14.5193 25.9455 12.7043H25.9305ZM0.933594 1.1543H17.8432C27.6259 1.1543 32.5023 5.0243 32.5023 12.7643C32.5023 16.7693 31.2419 19.7243 28.7212 21.6443C26.2005 23.5643 22.3895 24.5243 17.2581 24.5243H7.38536V34.8743H0.933594V1.1543ZM204.479 8.9543C205.59 9.7343 206.145 10.9793 206.145 12.7043H206.16C206.16 14.5193 205.575 15.8543 204.434 16.6793C203.294 17.5043 201.538 17.9243 199.183 17.9243H187.63V7.7843H199.273C201.628 7.7843 203.369 8.1743 204.479 8.9543ZM198.057 1.1543H181.148H181.133V34.8743H187.6V24.5243H197.472C202.604 24.5243 206.415 23.5643 208.935 21.6443C211.456 19.7243 212.716 16.7693 212.716 12.7643C212.716 5.0243 207.84 1.1543 198.057 1.1543ZM100.936 1.1543H94.469V34.8593H100.936V19.5754C101.328 22.4988 102.803 25.1761 105.122 27.0743L114.605 34.8443H124.807L109.233 22.0793C108.003 21.0743 107.298 19.5893 107.298 17.9993C107.298 16.4093 108.003 14.9243 109.233 13.9193L124.822 1.1543H114.62L105.137 8.9243C102.806 10.8318 101.328 13.526 100.936 16.4661V1.1543ZM167.764 17.2946C167.764 24.4946 163.323 29.1446 156.436 29.1446C149.549 29.1446 145.108 24.4946 145.108 17.2946V0.70459H138.641V17.3096C138.641 27.9146 145.963 35.3096 156.436 35.3096C166.909 35.3096 174.231 27.9146 174.231 17.3096V0.70459H167.764V17.2946ZM225.155 34.95C225.831 35.64 226.791 36 228.036 36C229.192 36 230.122 35.625 230.827 34.875C231.532 34.125 231.877 33.195 231.877 31.92C231.877 30.645 231.547 29.655 230.872 28.95C230.197 28.26 229.252 27.9 228.036 27.9C226.881 27.9 225.951 28.275 225.23 29.025C224.51 29.79 224.15 30.75 224.15 31.935C224.15 33.24 224.48 34.245 225.155 34.95ZM225.275 17.34C225.516 19.455 225.771 21.48 226.026 23.43V23.415H230.197C230.452 21.57 230.692 19.59 230.917 17.52C231.142 15.45 231.322 13.35 231.472 11.235C231.607 9.135 231.682 7.095 231.682 5.145V1.5H224.525V5.16C224.525 7.05 224.585 9.015 224.72 11.085C224.855 13.14 225.035 15.225 225.275 17.34Z"/>
</mask>
<path fill-rule="evenodd" clip-rule="evenodd" d="M52.803 18C52.803 27.93 61.3703 36 71.8882 36H71.9032C78.0999 36 83.9515 33.12 87.5225 28.305L82.2261 24.78C79.8554 27.96 75.9993 29.865 71.8882 29.865C64.9413 29.865 59.2848 24.54 59.2848 18C59.2848 11.46 64.9413 6.135 71.8882 6.135C76.0144 6.135 79.8704 8.04 82.2411 11.235L87.5375 7.725C83.9665 2.895 78.1149 0 71.8882 0C61.3703 0 52.803 8.07 52.803 18ZM39.4341 1.1543H45.9009V34.8593H39.4341V1.1543ZM25.9305 12.7043C25.9305 10.9793 25.3753 9.7343 24.265 8.9543C23.1547 8.1743 21.4142 7.7843 19.0586 7.7843H7.41537V17.9243H18.9685C21.3242 17.9243 23.0797 17.5043 24.22 16.6793C25.3603 15.8543 25.9455 14.5193 25.9455 12.7043H25.9305ZM0.933594 1.1543H17.8432C27.6259 1.1543 32.5023 5.0243 32.5023 12.7643C32.5023 16.7693 31.2419 19.7243 28.7212 21.6443C26.2005 23.5643 22.3895 24.5243 17.2581 24.5243H7.38536V34.8743H0.933594V1.1543ZM204.479 8.9543C205.59 9.7343 206.145 10.9793 206.145 12.7043H206.16C206.16 14.5193 205.575 15.8543 204.434 16.6793C203.294 17.5043 201.538 17.9243 199.183 17.9243H187.63V7.7843H199.273C201.628 7.7843 203.369 8.1743 204.479 8.9543ZM198.057 1.1543H181.148H181.133V34.8743H187.6V24.5243H197.472C202.604 24.5243 206.415 23.5643 208.935 21.6443C211.456 19.7243 212.716 16.7693 212.716 12.7643C212.716 5.0243 207.84 1.1543 198.057 1.1543ZM100.936 1.1543H94.469V34.8593H100.936V19.5754C101.328 22.4988 102.803 25.1761 105.122 27.0743L114.605 34.8443H124.807L109.233 22.0793C108.003 21.0743 107.298 19.5893 107.298 17.9993C107.298 16.4093 108.003 14.9243 109.233 13.9193L124.822 1.1543H114.62L105.137 8.9243C102.806 10.8318 101.328 13.526 100.936 16.4661V1.1543ZM167.764 17.2946C167.764 24.4946 163.323 29.1446 156.436 29.1446C149.549 29.1446 145.108 24.4946 145.108 17.2946V0.70459H138.641V17.3096C138.641 27.9146 145.963 35.3096 156.436 35.3096C166.909 35.3096 174.231 27.9146 174.231 17.3096V0.70459H167.764V17.2946ZM225.155 34.95C225.831 35.64 226.791 36 228.036 36C229.192 36 230.122 35.625 230.827 34.875C231.532 34.125 231.877 33.195 231.877 31.92C231.877 30.645 231.547 29.655 230.872 28.95C230.197 28.26 229.252 27.9 228.036 27.9C226.881 27.9 225.951 28.275 225.23 29.025C224.51 29.79 224.15 30.75 224.15 31.935C224.15 33.24 224.48 34.245 225.155 34.95ZM225.275 17.34C225.516 19.455 225.771 21.48 226.026 23.43V23.415H230.197C230.452 21.57 230.692 19.59 230.917 17.52C231.142 15.45 231.322 13.35 231.472 11.235C231.607 9.135 231.682 7.095 231.682 5.145V1.5H224.525V5.16C224.525 7.05 224.585 9.015 224.72 11.085C224.855 13.14 225.035 15.225 225.275 17.34Z" fill="white"/>
<path d="M87.5225 28.305L88.3257 28.9007L88.9525 28.0555L88.0766 27.4725L87.5225 28.305ZM82.2261 24.78L82.7801 23.9475L81.9909 23.4223L81.4243 24.1823L82.2261 24.78ZM82.2411 11.235L81.438 11.8309L82.003 12.5924L82.7935 12.0686L82.2411 11.235ZM87.5375 7.725L88.0899 8.55857L88.9675 7.97702L88.3416 7.1305L87.5375 7.725ZM45.9009 1.1543H46.9009V0.154297H45.9009V1.1543ZM39.4341 1.1543V0.154297H38.4341V1.1543H39.4341ZM45.9009 34.8593V35.8593H46.9009V34.8593H45.9009ZM39.4341 34.8593H38.4341V35.8593H39.4341V34.8593ZM24.265 8.9543L24.8398 8.13603H24.8398L24.265 8.9543ZM25.9305 12.7043H24.9305V13.7043H25.9305V12.7043ZM7.41537 7.7843V6.7843H6.41537V7.7843H7.41537ZM7.41537 17.9243H6.41537V18.9243H7.41537V17.9243ZM24.22 16.6793L23.6338 15.8691H23.6338L24.22 16.6793ZM25.9455 12.7043H26.9455V11.7043H25.9455V12.7043ZM0.933594 1.1543V0.154297H-0.0664062V1.1543H0.933594ZM7.38536 24.5243V23.5243H6.38536V24.5243H7.38536ZM7.38536 34.8743V35.8743H8.38536V34.8743H7.38536ZM0.933594 34.8743H-0.0664062V35.8743H0.933594V34.8743ZM206.145 12.7043H205.145V13.7043H206.145V12.7043ZM206.16 12.7043H207.16V11.7043H206.16V12.7043ZM204.434 16.6793L203.848 15.8691V15.8691L204.434 16.6793ZM187.63 17.9243H186.63V18.9243H187.63V17.9243ZM187.63 7.7843V6.7843H186.63V7.7843H187.63ZM181.133 1.1543V0.154297H180.133V1.1543H181.133ZM181.133 34.8743H180.133V35.8743H181.133V34.8743ZM187.6 34.8743V35.8743H188.6V34.8743H187.6ZM187.6 24.5243V23.5243H186.6V24.5243H187.6ZM94.469 1.1543V0.154297H93.469V1.1543H94.469ZM100.936 1.1543H101.936V0.154297H100.936V1.1543ZM94.469 34.8593H93.469V35.8593H94.469V34.8593ZM100.936 34.8593V35.8593H101.936V34.8593H100.936ZM100.936 19.5754L101.927 19.4426L99.9358 19.5754H100.936ZM105.122 27.0743L105.756 26.3008L105.755 26.3004L105.122 27.0743ZM114.605 34.8443L113.971 35.6178L114.247 35.8443H114.605V34.8443ZM124.807 34.8443V35.8443H127.605L125.441 34.0709L124.807 34.8443ZM109.233 22.0793L109.867 21.3059L109.866 21.3048L109.233 22.0793ZM109.233 13.9193L109.866 14.6938L109.867 14.693L109.233 13.9193ZM124.822 1.1543L125.456 1.92801L127.622 0.154297H124.822V1.1543ZM114.62 1.1543V0.154297H114.262L113.986 0.3808L114.62 1.1543ZM105.137 8.9243L105.77 9.69815L105.771 9.69779L105.137 8.9243ZM100.936 16.4661H99.9358L101.927 16.5984L100.936 16.4661ZM145.108 0.70459H146.108V-0.29541H145.108V0.70459ZM138.641 0.70459V-0.29541H137.641V0.70459H138.641ZM174.231 0.70459H175.231V-0.29541H174.231V0.70459ZM167.764 0.70459V-0.29541H166.764V0.70459H167.764ZM225.155 34.95L224.433 35.6417L224.441 35.6494L225.155 34.95ZM230.827 34.875L231.555 35.56V35.56L230.827 34.875ZM230.872 28.95L231.594 28.2583L231.587 28.2506L230.872 28.95ZM225.23 29.025L224.509 28.3323L224.502 28.3395L225.23 29.025ZM226.026 23.43L225.034 23.5597L227.026 23.43H226.026ZM226.026 23.415V22.415H225.026V23.415H226.026ZM230.197 23.415V24.415H231.068L231.187 23.5519L230.197 23.415ZM230.917 17.52L229.923 17.4119V17.4119L230.917 17.52ZM231.472 11.235L232.47 11.3058L232.47 11.2992L231.472 11.235ZM231.682 1.5H232.682V0.5H231.682V1.5ZM224.525 1.5V0.5H223.525V1.5H224.525ZM224.72 11.085L223.722 11.1501L223.722 11.1506L224.72 11.085ZM71.8882 35C61.8663 35 53.803 27.323 53.803 18H51.803C51.803 28.537 60.8744 37 71.8882 37V35ZM71.9032 35H71.8882V37H71.9032V35ZM86.7193 27.7093C83.3446 32.2597 77.7963 35 71.9032 35V37C78.4035 37 84.5585 33.9804 88.3257 28.9007L86.7193 27.7093ZM81.672 25.6125L86.9685 29.1375L88.0766 27.4725L82.7801 23.9475L81.672 25.6125ZM71.8882 30.865C76.3039 30.865 80.4618 28.8197 83.0278 25.3777L81.4243 24.1823C79.249 27.1003 75.6948 28.865 71.8882 28.865V30.865ZM58.2848 18C58.2848 25.1483 64.4468 30.865 71.8882 30.865V28.865C65.4358 28.865 60.2848 23.9317 60.2848 18H58.2848ZM71.8882 5.135C64.4468 5.135 58.2848 10.8517 58.2848 18H60.2848C60.2848 12.0683 65.4358 7.135 71.8882 7.135V5.135ZM83.0441 10.6391C80.4776 7.18016 76.3186 5.135 71.8882 5.135V7.135C75.7101 7.135 79.2632 8.89984 81.438 11.8309L83.0441 10.6391ZM86.9851 6.89143L81.6886 10.4014L82.7935 12.0686L88.0899 8.55857L86.9851 6.89143ZM71.8882 1C77.8102 1 83.3583 3.75441 86.7334 8.3195L88.3416 7.1305C84.5748 2.03559 78.4196 -1 71.8882 -1V1ZM53.803 18C53.803 8.67699 61.8663 1 71.8882 1V-1C60.8744 -1 51.803 7.46301 51.803 18H53.803ZM45.9009 0.154297H39.4341V2.1543H45.9009V0.154297ZM46.9009 34.8593V1.1543H44.9009V34.8593H46.9009ZM39.4341 35.8593H45.9009V33.8593H39.4341V35.8593ZM38.4341 1.1543V34.8593H40.4341V1.1543H38.4341ZM23.6902 9.77256C24.4635 10.3159 24.9305 11.2083 24.9305 12.7043H26.9305C26.9305 10.7503 26.2871 9.15273 24.8398 8.13603L23.6902 9.77256ZM19.0586 8.7843C21.3437 8.7843 22.8325 9.17008 23.6902 9.77256L24.8398 8.13603C23.4768 7.17852 21.4847 6.7843 19.0586 6.7843V8.7843ZM7.41537 8.7843H19.0586V6.7843H7.41537V8.7843ZM8.41537 17.9243V7.7843H6.41537V17.9243H8.41537ZM18.9685 16.9243H7.41537V18.9243H18.9685V16.9243ZM23.6338 15.8691C22.7435 16.5133 21.2393 16.9243 18.9685 16.9243V18.9243C21.4091 18.9243 23.4159 18.4953 24.8061 17.4895L23.6338 15.8691ZM24.9455 12.7043C24.9455 14.2966 24.4438 15.2831 23.6338 15.8691L24.8061 17.4895C26.2768 16.4255 26.9455 14.742 26.9455 12.7043H24.9455ZM25.9305 13.7043H25.9455V11.7043H25.9305V13.7043ZM17.8432 0.154297H0.933594V2.1543H17.8432V0.154297ZM33.5023 12.7643C33.5023 8.67072 32.2011 5.44331 29.4623 3.27303C26.768 1.13801 22.8394 0.154297 17.8432 0.154297V2.1543C22.6297 2.1543 26.0307 3.10558 28.2202 4.84056C30.3652 6.54029 31.5023 9.11788 31.5023 12.7643H33.5023ZM29.3272 22.4398C32.16 20.2821 33.5023 16.9914 33.5023 12.7643H31.5023C31.5023 16.5472 30.3239 19.1665 28.1153 20.8488L29.3272 22.4398ZM17.2581 25.5243C22.484 25.5243 26.5542 24.552 29.3272 22.4398L28.1153 20.8488C25.8469 22.5766 22.2949 23.5243 17.2581 23.5243V25.5243ZM7.38536 25.5243H17.2581V23.5243H7.38536V25.5243ZM8.38536 34.8743V24.5243H6.38536V34.8743H8.38536ZM0.933594 35.8743H7.38536V33.8743H0.933594V35.8743ZM-0.0664062 1.1543V34.8743H1.93359V1.1543H-0.0664062ZM207.145 12.7043C207.145 10.7503 206.501 9.15273 205.054 8.13603L203.904 9.77256C204.678 10.3159 205.145 11.2083 205.145 12.7043H207.145ZM206.16 11.7043H206.145V13.7043H206.16V11.7043ZM205.02 17.4895C206.491 16.4255 207.16 14.742 207.16 12.7043H205.16C205.16 14.2966 204.658 15.2831 203.848 15.8691L205.02 17.4895ZM199.183 18.9243C201.623 18.9243 203.63 18.4953 205.02 17.4895L203.848 15.8691C202.958 16.5133 201.454 16.9243 199.183 16.9243V18.9243ZM187.63 18.9243H199.183V16.9243H187.63V18.9243ZM186.63 7.7843V17.9243H188.63V7.7843H186.63ZM199.273 6.7843H187.63V8.7843H199.273V6.7843ZM205.054 8.13603C203.691 7.17851 201.699 6.7843 199.273 6.7843V8.7843C201.558 8.7843 203.047 9.17008 203.904 9.77256L205.054 8.13603ZM181.148 2.1543H198.057V0.154297H181.148V2.1543ZM181.133 2.1543H181.148V0.154297H181.133V2.1543ZM182.133 34.8743V1.1543H180.133V34.8743H182.133ZM187.6 33.8743H181.133V35.8743H187.6V33.8743ZM186.6 24.5243V34.8743H188.6V24.5243H186.6ZM197.472 23.5243H187.6V25.5243H197.472V23.5243ZM208.33 20.8488C206.061 22.5766 202.509 23.5243 197.472 23.5243V25.5243C202.698 25.5243 206.768 24.552 209.541 22.4398L208.33 20.8488ZM211.716 12.7643C211.716 16.5472 210.538 19.1665 208.33 20.8488L209.541 22.4398C212.374 20.2821 213.716 16.9914 213.716 12.7643H211.716ZM198.057 2.1543C202.844 2.1543 206.245 3.10558 208.434 4.84056C210.579 6.54028 211.716 9.11788 211.716 12.7643H213.716C213.716 8.67072 212.415 5.44331 209.677 3.27304C206.982 1.13801 203.054 0.154297 198.057 0.154297V2.1543ZM94.469 2.1543H100.936V0.154297H94.469V2.1543ZM95.469 34.8593V1.1543H93.469V34.8593H95.469ZM100.936 33.8593H94.469V35.8593H100.936V33.8593ZM99.9358 19.5754V34.8593H101.936V19.5754H99.9358ZM105.755 26.3004C103.634 24.564 102.285 22.1166 101.927 19.4426L99.9446 19.7083C100.37 22.881 101.972 25.7881 104.489 27.8481L105.755 26.3004ZM115.238 34.0708L105.756 26.3008L104.488 27.8478L113.971 35.6178L115.238 34.0708ZM124.807 33.8443H114.605V35.8443H124.807V33.8443ZM108.599 22.8527L124.173 35.6177L125.441 34.0709L109.867 21.3059L108.599 22.8527ZM106.298 17.9993C106.298 19.8897 107.138 21.659 108.6 22.8538L109.866 21.3048C108.868 20.4896 108.298 19.2889 108.298 17.9993H106.298ZM108.6 13.1448C107.138 14.3396 106.298 16.1089 106.298 17.9993H108.298C108.298 16.7097 108.868 15.509 109.866 14.6938L108.6 13.1448ZM124.189 0.380586L108.6 13.1456L109.867 14.693L125.456 1.92801L124.189 0.380586ZM114.62 2.1543H124.822V0.154297H114.62V2.1543ZM105.771 9.69779L115.253 1.92779L113.986 0.3808L104.503 8.1508L105.771 9.69779ZM101.927 16.5984C102.286 13.9067 103.639 11.4429 105.77 9.69815L104.504 8.15044C101.974 10.2207 100.37 13.1454 99.9445 16.3338L101.927 16.5984ZM99.9358 1.1543V16.4661H101.936V1.1543H99.9358ZM156.436 30.1446C160.112 30.1446 163.22 28.8978 165.406 26.6105C167.587 24.3279 168.764 21.1006 168.764 17.2946H166.764C166.764 20.6885 165.721 23.3863 163.96 25.2287C162.204 27.0664 159.647 28.1446 156.436 28.1446V30.1446ZM144.108 17.2946C144.108 21.1006 145.285 24.3279 147.467 26.6105C149.653 28.8978 152.76 30.1446 156.436 30.1446V28.1446C153.226 28.1446 150.669 27.0664 148.913 25.2287C147.152 23.3863 146.108 20.6885 146.108 17.2946H144.108ZM144.108 0.70459V17.2946H146.108V0.70459H144.108ZM138.641 1.70459H145.108V-0.29541H138.641V1.70459ZM139.641 17.3096V0.70459H137.641V17.3096H139.641ZM156.436 34.3096C151.442 34.3096 147.257 32.5508 144.322 29.5833C141.387 26.615 139.641 22.3766 139.641 17.3096H137.641C137.641 22.8476 139.557 27.6092 142.9 30.9897C146.245 34.3709 150.957 36.3096 156.436 36.3096V34.3096ZM173.231 17.3096C173.231 22.3766 171.486 26.615 168.55 29.5833C165.615 32.5508 161.43 34.3096 156.436 34.3096V36.3096C161.915 36.3096 166.628 34.3709 169.972 30.9897C173.315 27.6092 175.231 22.8476 175.231 17.3096H173.231ZM173.231 0.70459V17.3096H175.231V0.70459H173.231ZM167.764 1.70459H174.231V-0.29541H167.764V1.70459ZM168.764 17.2946V0.70459H166.764V17.2946H168.764ZM228.036 35C226.989 35 226.313 34.7031 225.87 34.2506L224.441 35.6494C225.348 36.5769 226.593 37 228.036 37V35ZM230.098 34.19C229.606 34.7134 228.953 35 228.036 35V37C229.43 37 230.637 36.5366 231.555 35.56L230.098 34.19ZM230.877 31.92C230.877 32.9889 230.599 33.658 230.098 34.19L231.555 35.56C232.466 34.592 232.877 33.4011 232.877 31.92H230.877ZM230.15 29.6417C230.594 30.1059 230.877 30.8156 230.877 31.92H232.877C232.877 30.4744 232.5 29.2041 231.594 28.2583L230.15 29.6417ZM228.036 28.9C229.045 28.9 229.71 29.1921 230.157 29.6494L231.587 28.2506C230.684 27.3279 229.458 26.9 228.036 26.9V28.9ZM225.952 29.7176C226.463 29.1854 227.122 28.9 228.036 28.9V26.9C226.64 26.9 225.438 27.3646 224.509 28.3324L225.952 29.7176ZM225.15 31.935C225.15 30.9734 225.433 30.2683 225.959 29.7105L224.502 28.3395C223.587 29.3117 223.15 30.5266 223.15 31.935H225.15ZM225.878 34.2583C225.437 33.7981 225.15 33.0768 225.15 31.935H223.15C223.15 33.4032 223.524 34.6919 224.433 35.6417L225.878 34.2583ZM227.017 23.3003C226.763 21.3535 226.508 19.3345 226.269 17.2272L224.282 17.4528C224.523 19.5755 224.779 21.6065 225.034 23.5597L227.017 23.3003ZM225.026 23.415V23.43H227.026V23.415H225.026ZM230.197 22.415H226.026V24.415H230.197V22.415ZM229.923 17.4119C229.699 19.4744 229.46 21.4445 229.206 23.2781L231.187 23.5519C231.444 21.6955 231.685 19.7056 231.911 17.6281L229.923 17.4119ZM230.475 11.1642C230.325 13.2697 230.146 15.357 229.923 17.4119L231.911 17.6281C232.138 15.543 232.319 13.4303 232.47 11.3058L230.475 11.1642ZM230.682 5.145C230.682 7.06985 230.608 9.08809 230.474 11.1708L232.47 11.2992C232.606 9.18191 232.682 7.12016 232.682 5.145H230.682ZM230.682 1.5V5.145H232.682V1.5H230.682ZM224.525 2.5H231.682V0.5H224.525V2.5ZM225.525 5.16V1.5H223.525V5.16H225.525ZM225.718 11.0199C225.585 8.97192 225.525 7.02863 225.525 5.16H223.525C223.525 7.07137 223.586 9.05808 223.722 11.1501L225.718 11.0199ZM226.269 17.2272C226.031 15.1297 225.852 13.0606 225.718 11.0194L223.722 11.1506C223.858 13.2194 224.04 15.3203 224.282 17.4528L226.269 17.2272Z" fill="black" mask="url(#path-1-inside-1_911_538990)"/>
</g>
<defs>
<clipPath id="clip0_911_538990">
<rect width="230.943" height="36" fill="white" transform="translate(0.933594)"/>
</clipPath>
</defs>
</svg>
