<svg width="185" height="36" viewBox="0 0 185 36" fill="none" xmlns="http://www.w3.org/2000/svg">
<g clip-path="url(#clip0_1150_226714)">
<path d="M34.89 31.87H29.57L25.91 24.71H11.49L7.83 31.87H2.5L16.55 4.54C16.95 3.77 17.79 3.28 18.7 3.28C19.61 3.28 20.45 3.77 20.85 4.54L34.89 31.87ZM23.32 19.68L18.69 10.64L14.06 19.68H23.32Z" fill="black"/>
<path d="M63.8784 20.27C62.9384 20.96 61.7684 21.48 60.3984 21.85L66.2284 31.88H60.3484L54.9084 22.52C54.5684 22.53 54.7684 22.54 54.4084 22.54H46.2484V31.88H40.8984V4.03H54.8784C62.9584 4.03 66.9984 7.1 66.9984 13.23C66.9984 16.4 65.9584 18.75 63.8784 20.27ZM60.1384 16.34C61.0884 15.68 61.5584 14.63 61.5584 13.19C61.5584 11.82 61.0984 10.83 60.1784 10.21C59.2584 9.59 57.8184 9.28 55.8784 9.28H46.2484V17.32H55.7984C57.7484 17.32 59.1984 16.99 60.1384 16.33V16.34Z" fill="black"/>
<path d="M101.679 3.04001V8.19001L90.4186 10.17V31.89H85.0686V11.11L73.8086 13.09V7.94001L101.669 3.04001H101.679Z" fill="black"/>
<path d="M108.5 31.89V4.04001H113.85V31.89H108.5Z" fill="black"/>
<path d="M138.029 15.26C141.569 15.82 147.459 17.93 147.459 24C147.459 26.86 145.749 32.81 134.919 32.81C125.819 32.81 121.719 29.61 121.059 23.2H127.259C127.549 24.71 128.329 25.83 129.579 26.55C130.839 27.28 132.629 27.64 134.959 27.64C137.159 27.64 138.829 27.34 139.979 26.75C141.129 26.16 141.709 25.29 141.709 24.15C141.709 23.28 141.349 22.58 140.639 22.07C139.929 21.55 138.749 21.18 137.109 20.94L132.069 20.19C128.199 19.58 126.559 18.59 124.819 17.21C123.069 15.83 122.199 13.93 122.199 11.49C122.199 8.82 124.389 3.03 134.689 3.03C143.929 3.03 146.589 8.39 147.199 11.17H140.969C140.479 10.24 139.819 9.53 138.979 9.07C137.919 8.49 136.429 8.2 134.489 8.2C132.399 8.2 130.779 8.47 129.649 8.99C128.519 9.51 127.939 10.29 127.939 11.29C127.939 12.19 128.279 12.87 128.949 13.31C129.619 13.75 130.849 14.12 132.619 14.38L138.029 15.25V15.26Z" fill="black"/>
<path d="M181.722 3.04001V8.19001L170.462 10.17V31.89H165.112V11.11L153.852 13.09V7.94001L181.712 3.04001H181.722Z" fill="black"/>
</g>
<defs>
<clipPath id="clip0_1150_226714">
<rect width="184" height="36" fill="white" transform="translate(0.5)"/>
</clipPath>
</defs>
</svg>
