<svg width="486" height="36" viewBox="0 0 486 36" fill="none" xmlns="http://www.w3.org/2000/svg">
<g clip-path="url(#clip0_1150_226596)">
<path d="M18.97 15.26C22.51 15.82 28.4 17.93 28.4 24C28.4 26.86 26.69 32.81 15.86 32.81C6.76 32.81 2.66 29.61 2 23.2H8.2C8.49 24.71 9.27 25.83 10.52 26.55C11.78 27.28 13.57 27.64 15.9 27.64C18.1 27.64 19.77 27.34 20.92 26.75C22.07 26.16 22.65 25.29 22.65 24.15C22.65 23.28 22.29 22.58 21.58 22.07C20.87 21.55 19.69 21.18 18.05 20.94L13.01 20.19C9.14 19.58 7.5 18.59 5.76 17.21C4.01 15.83 3.14 13.93 3.14 11.49C3.14 8.82003 5.33 3.03003 15.63 3.03003C24.87 3.03003 27.53 8.39003 28.14 11.17H21.91C21.42 10.24 20.76 9.53003 19.92 9.07003C18.86 8.49003 17.37 8.20003 15.43 8.20003C13.34 8.20003 11.72 8.47003 10.59 8.99003C9.46 9.51003 8.88 10.29 8.88 11.29C8.88 12.19 9.22 12.87 9.89 13.31C10.56 13.75 11.79 14.12 13.56 14.38L18.97 15.25V15.26Z" fill="black"/>
<path d="M49.9783 4.03003C58.0583 4.03003 62.0983 7.23003 62.0983 13.62C62.0983 16.92 61.0583 19.37 58.9783 20.95C56.8983 22.53 53.7383 23.33 49.4983 23.33H41.3383V31.89H35.9883V4.03003H49.9683H49.9783ZM55.2383 16.86C56.1883 16.18 56.6583 15.08 56.6583 13.57C56.6583 12.15 56.1983 11.11 55.2783 10.47C54.3583 9.82003 52.9183 9.50003 50.9783 9.50003H41.3483V17.88H50.8983C52.8483 17.88 54.2983 17.54 55.2383 16.85V16.86Z" fill="black"/>
<path d="M73.4611 14.99V17.12L93.4711 13.6V18.74L73.7411 22.21C74.2511 24.19 75.6211 26.56 79.3511 26.56H93.4711V31.88H79.3511C77.1911 31.88 75.1811 31.29 73.4611 30.28C70.2611 28.4 68.1211 25.06 68.1211 21.24V14.71C68.1211 10.9 70.2611 7.54996 73.4611 5.67996C75.1711 4.66996 77.1911 4.07996 79.3511 4.07996H93.4711V9.39996H79.3511C76.1011 9.39996 73.4611 11.9 73.4611 14.98V14.99Z" fill="black"/>
<path d="M125.88 22.87L130.13 26L129.85 26.39C126.88 30.42 122.05 32.82 116.92 32.82C108.19 32.82 101.09 26.01 101.09 17.65C101.09 9.28998 108.19 2.47998 116.92 2.47998C122.07 2.47998 126.91 4.88998 129.88 8.93998L130.17 9.32998L125.91 12.45C124.05 9.62998 120.73 7.73998 116.93 7.73998C111.1 7.73998 106.37 12.17 106.37 17.64C106.37 23.11 111.1 27.54 116.93 27.54C120.72 27.54 124.03 25.66 125.9 22.85L125.88 22.87Z" fill="black"/>
<path d="M137.359 31.89V4.04004H142.709V31.89H137.359Z" fill="black"/>
<path d="M181.91 31.87H176.59L172.93 24.71H158.51L154.85 31.87H149.52L163.57 4.54003C163.97 3.77003 164.81 3.28003 165.72 3.28003C166.63 3.28003 167.47 3.77003 167.87 4.54003L181.91 31.87ZM170.34 19.68L165.71 10.64L161.08 19.68H170.34Z" fill="black"/>
<path d="M197.501 26.82H205.831V31.88H197.501C191.781 31.88 187.121 27.47 187.121 22.05V4.04004H192.471V22.05C192.471 24.68 194.731 26.82 197.511 26.82H197.501Z" fill="black"/>
<path d="M244.159 22.87L248.409 26L248.129 26.39C245.159 30.42 240.329 32.82 235.189 32.82C226.459 32.82 219.359 26.01 219.359 17.65C219.359 9.28998 226.459 2.47998 235.189 2.47998C240.339 2.47998 245.179 4.88998 248.149 8.93998L248.439 9.32998L244.179 12.45C242.319 9.62998 238.999 7.73998 235.199 7.73998C229.369 7.73998 224.639 12.17 224.639 17.64C224.639 23.11 229.369 27.54 235.199 27.54C238.989 27.54 242.299 25.66 244.169 22.85L244.159 22.87Z" fill="black"/>
<path d="M285.141 17.96C285.141 26.18 278.091 32.84 269.391 32.84C260.691 32.84 253.641 26.18 253.641 17.96C253.641 9.73995 260.691 3.07996 269.391 3.07996C278.091 3.07996 285.141 9.73995 285.141 17.96ZM279.791 17.96C279.791 12.7 275.121 8.15996 269.391 8.15996C263.661 8.15996 258.991 12.7 258.991 17.96C258.991 23.22 263.661 27.76 269.391 27.76C275.121 27.76 279.791 23.22 279.791 17.96Z" fill="black"/>
<path d="M320.17 18.6V31.88H314.82V18.6C314.82 12.68 311.15 8.35003 305.46 8.35003C299.77 8.35003 296.1 12.68 296.1 18.6V31.88H290.75V18.6C290.75 9.87003 296.8 3.28003 305.46 3.28003C314.12 3.28003 320.17 9.88003 320.17 18.6Z" fill="black"/>
<path d="M353.261 3.04004V8.19004L342.001 10.17V31.89H336.651V11.11L325.391 13.09V7.94004L353.251 3.04004H353.261Z" fill="black"/>
<path d="M363.012 14.99V17.12L383.022 13.6V18.74L363.292 22.21C363.802 24.19 365.172 26.56 368.902 26.56H383.022V31.88H368.902C366.742 31.88 364.732 31.29 363.012 30.28C359.812 28.4 357.672 25.06 357.672 21.24V14.71C357.672 10.9 359.812 7.54996 363.012 5.67996C364.722 4.66996 366.742 4.07996 368.902 4.07996H383.022V9.39996H368.902C365.652 9.39996 363.012 11.9 363.012 14.98V14.99Z" fill="black"/>
<path d="M419.65 18.6V31.88H414.3V18.6C414.3 12.68 410.63 8.35003 404.94 8.35003C399.25 8.35003 395.58 12.68 395.58 18.6V31.88H390.23V18.6C390.23 9.87003 396.28 3.28003 404.94 3.28003C413.6 3.28003 419.65 9.88003 419.65 18.6Z" fill="black"/>
<path d="M452.741 3.04004V8.19004L441.481 10.17V31.89H436.131V11.11L424.871 13.09V7.94004L452.731 3.04004H452.741Z" fill="black"/>
<path d="M473.72 15.26C477.27 15.82 483.15 17.93 483.15 24C483.15 26.86 481.44 32.81 470.61 32.81C461.51 32.81 457.41 29.61 456.75 23.2H462.95C463.24 24.71 464.02 25.83 465.27 26.55C466.53 27.28 468.32 27.64 470.65 27.64C472.85 27.64 474.52 27.34 475.67 26.75C476.82 26.15 477.4 25.29 477.4 24.15C477.4 23.28 477.04 22.58 476.33 22.07C475.62 21.55 474.44 21.18 472.8 20.94L467.76 20.19C463.9 19.58 462.26 18.59 460.51 17.21C458.76 15.83 457.89 13.93 457.89 11.49C457.89 8.82003 460.08 3.03003 470.38 3.03003C479.62 3.03003 482.28 8.39003 482.89 11.17H476.66C476.17 10.24 475.51 9.53003 474.67 9.07003C473.61 8.49003 472.12 8.20003 470.18 8.20003C468.09 8.20003 466.47 8.47003 465.34 8.99003C464.2 9.52003 463.63 10.29 463.63 11.29C463.63 12.19 463.97 12.87 464.64 13.31C465.31 13.75 466.54 14.12 468.31 14.38L473.72 15.25V15.26Z" fill="black"/>
</g>
<defs>
<clipPath id="clip0_1150_226596">
<rect width="486" height="36" fill="white"/>
</clipPath>
</defs>
</svg>
