<?xml version="1.0" encoding="UTF-8"?>
<svg xmlns="http://www.w3.org/2000/svg" version="1.1" viewBox="0 0 210 96">
  <defs>
    <style>
      .cls-1 {
        stroke-width: 3px;
      }

      .cls-1, .cls-2 {
        fill: none;
        stroke: #000;
        stroke-linecap: round;
        stroke-miterlimit: 10;
      }

      .cls-2 {
        stroke-width: 4px;
      }
    </style>
  </defs>
  <!-- Generator: Adobe Illustrator 28.7.1, SVG Export Plug-In . SVG Version: 1.2.0 Build 142)  -->
  <g>
    <g id="_レイヤー_1" data-name="レイヤー_1">
      <path class="cls-1" d="M2.7,93.7c53.5-6.8,149.5-13.3,204.3-14.5"/>
      <path class="cls-2" d="M12.7,48.8c7.1-1.8,24.8-5.4,29.9-5.6"/>
      <path class="cls-2" d="M28.1,34.3c-1.6,4.4-7.6,19.9-7.7,22.4,0,2.5,10.2,6.5,13.4,7.6"/>
      <path class="cls-2" d="M34.9,44.6c-2,11.6-8.5,24.4-15.5,33.6"/>
      <path class="cls-2" d="M49,26.4c3,.9,10.8,3.2,11.8,4.9,1,1.7-3.2,9-5.8,11"/>
      <path class="cls-2" d="M51.5,40.9c5.5,3.1,12,5.7,10.5,19.2-1.6,13.4-10.8,15.3-12.3,15.3-1.5,0-3.3-4.1-3.3-4.1"/>
      <path class="cls-2" d="M45.1,58c9.3-2.6,26-5.2,35.6-5.9"/>
      <path class="cls-2" d="M98.8,30.3c8.9-2.7,17.4-4.4,25.3-5"/>
      <path class="cls-2" d="M98.2,44.6c8-3.1,23.9-7,30.8-7.8"/>
      <path class="cls-2" d="M110.3,22.2c2.9,7.1,10.9,27.8,10.5,29.9-.5,2.6-4.5,3.9-4.5,3.9"/>
      <path class="cls-2" d="M93.6,58c3.5,4.2,14.7,13.2,18.9,15.1"/>
    </g>
  </g>
</svg>