<svg width="193" height="26" viewBox="0 0 193 26" fill="none" xmlns="http://www.w3.org/2000/svg">
<g clip-path="url(#clip0_1713_12957)">
<path d="M11.4533 4.00127C14.0471 3.86224 16.7773 3.61506 19.1891 3.19795L19.1587 6.4267C16.565 6.81292 13.1977 7.04465 10.255 7.12189C9.78482 8.15695 9.23877 9.14566 8.69272 9.96443C9.40562 9.62457 10.8769 9.40829 11.7719 9.40829C13.4404 9.40829 14.8055 10.1344 15.397 11.5556C16.8229 10.8914 17.9605 10.4124 19.0829 9.91809C20.1447 9.43918 21.1003 9.00662 22.1165 8.46592L23.4817 11.6947C22.6019 11.9419 21.1609 12.498 20.2357 12.8688C19.0071 13.3631 17.4447 13.9811 15.7762 14.7535C15.8066 16.3138 15.8521 18.3685 15.8824 19.6507H12.6061C12.6819 18.8165 12.7123 17.4879 12.7426 16.252C10.6949 17.4416 9.60281 18.5384 9.60281 19.9288C9.60281 21.4582 10.8921 21.8753 13.5617 21.8753C15.8824 21.8753 18.9161 21.5663 21.3126 21.1029L21.2064 24.687C19.4014 24.9341 16.0493 25.1659 13.4707 25.1659C9.1781 25.1659 6.00795 24.1154 6.00795 20.5158C6.00795 16.9163 9.28427 14.7226 12.3937 13.0851C11.9842 12.3899 11.241 12.1427 10.4826 12.1427C8.95057 12.1427 7.26691 13.0387 6.2203 14.0583C5.40122 14.8925 4.61248 15.8967 3.68722 17.1171L0.759766 14.8925C3.62655 12.189 5.56807 9.71726 6.79669 7.21458H6.44783C5.32538 7.21458 3.33835 7.15279 1.83671 7.04465V3.78499C3.23218 4.00127 5.24954 4.12486 6.64501 4.12486H7.94948C8.25284 3.01256 8.43486 1.93116 8.49553 0.927002L12.1056 1.23597C11.969 1.93116 11.7719 2.84263 11.423 4.01672L11.4533 4.00127Z" fill="black"/>
<path d="M36.0567 10.2115C36.0567 14.6916 35.6471 21.5663 33.1899 25.9073C32.5832 25.3512 31.1422 24.4088 30.3838 24.038C32.6287 20.0523 32.8107 14.2127 32.8107 10.2115V3.19786H42.5335V0H45.916V3.19786H55.7753V6.34938H36.0567V10.2115ZM35.5561 22.2305C36.7089 20.1141 37.2701 16.8853 37.5432 13.7956L40.4706 14.429C40.1673 17.6269 39.6819 21.3036 38.4533 23.5282L35.5561 22.2151V22.2305ZM47.7362 22.4777C48.5552 22.4777 48.7221 21.8443 48.8283 17.9976C49.5108 18.5847 50.8456 19.1099 51.6951 19.3262C51.3917 24.0844 50.5726 25.413 48.0395 25.413H45.0059C42.1088 25.413 41.4262 24.4397 41.4262 21.35V11.6482H44.6419V21.3345C44.6419 22.3387 44.748 22.4777 45.5216 22.4777H47.7362ZM48.0395 12.9305C46.7351 11.6173 43.8683 9.76352 41.6234 8.58942L43.7773 6.42662C45.9615 7.47712 48.9041 9.14557 50.3906 10.4587L48.0395 12.9305ZM52.8175 13.0695C54.4253 15.9584 56.018 19.6352 56.4579 22.1687L53.2574 23.4973C52.9085 21.0255 51.4827 17.1479 49.9204 14.2127L52.8175 13.0695Z" fill="black"/>
<path d="M71.9749 15.5258C71.08 15.8039 70.1699 16.082 69.275 16.3292V22.4468C69.275 23.9762 69.002 24.8105 68.1829 25.3357C67.3638 25.861 66.1959 25.9691 64.4212 25.9537C64.3454 25.1503 63.9813 23.7908 63.6021 22.8948C64.588 22.9566 65.5133 22.9566 65.847 22.9257C66.1807 22.9257 66.3172 22.8176 66.3172 22.4468V17.1943L63.5869 18.0285L63.1016 14.7689C64.0268 14.568 65.1189 14.29 66.3172 13.9964V8.2959H63.4504V5.23708H66.3172V0H69.2902V5.22163H71.7474V8.28045H69.2902V13.1777L71.5806 12.5597L71.9901 15.5104L71.9749 15.5258ZM86.9307 15.8503C86.2482 18.322 85.2167 20.2377 83.7909 21.7671C85.3533 22.4623 87.0976 22.9566 89.0391 23.2656C88.3566 23.899 87.5375 25.1349 87.1279 25.9691C84.9741 25.4902 83.0325 24.7796 81.364 23.8217C79.8624 24.7641 78.0877 25.4902 76.2069 25.9846C75.8732 25.2894 75.0086 24.0689 74.4625 23.5437C76.1007 23.2038 77.6023 22.7094 78.9068 22.0143C78.118 21.3809 77.4355 20.593 76.8287 19.7588C75.767 22.0915 74.2047 24.2698 71.7778 25.8764C71.3379 25.104 70.4126 24.038 69.6694 23.4819C73.2794 21.2264 74.6597 17.6732 75.2968 14.1046H72.0204V11.432H75.6456C75.676 10.984 75.7063 10.5359 75.7518 10.1188H72.5362V7.53892H74.235C74.0226 6.6738 73.6131 5.45336 73.2491 4.54189L75.7063 3.8467C76.1158 4.88176 76.6922 6.21034 76.9349 7.04456L75.4029 7.53892H78.5428C78.4669 6.62745 78.2091 5.17528 77.936 4.03209L80.4691 3.58408C80.7725 4.66548 81.091 6.08675 81.2123 6.95187L78.6793 7.53892H82.0921C82.8505 6.22579 83.7303 4.4183 84.2156 3.05882C80.5753 3.53773 76.3737 3.78491 72.7182 3.83125C72.6575 3.10517 72.339 2.05466 72.0356 1.39037C76.8136 1.22044 82.4106 0.803327 85.778 0.0617944L87.6133 2.53357C86.5819 2.7344 85.4594 2.88889 84.2308 3.05882L87.2341 3.95484C86.4909 5.17528 85.7021 6.45752 84.9892 7.53892H87.583V10.1188H78.8461C78.8158 10.5668 78.7854 10.984 78.7399 11.432H88.3869V14.1046H78.4214C78.3456 14.4599 78.2849 14.8307 78.2091 15.186H84.6859L85.2016 15.1087L86.9459 15.8348L86.9307 15.8503ZM78.5731 17.6114C79.2557 18.6619 80.1506 19.5888 81.3034 20.3922C82.1224 19.6197 82.8353 18.6928 83.3207 17.6114H78.5731Z" fill="black"/>
<path d="M102.251 5.17522C102.144 8.17225 101.917 14.4135 101.917 17.8585C101.917 20.6702 103.555 21.5816 105.679 21.5816C110.183 21.5816 113.05 18.9399 115.022 15.912L117.51 18.9708C115.765 21.6434 111.882 25.3665 105.663 25.3665C101.189 25.3665 98.2917 23.3582 98.2917 18.6001C98.2917 14.8769 98.5647 7.55431 98.5647 5.15977C98.5647 3.84664 98.4585 2.51806 98.2158 1.40576L102.615 1.46756C102.448 2.64165 102.311 4.04747 102.266 5.15977L102.251 5.17522Z" fill="black"/>
<path d="M138.791 2.99706C138.76 3.27514 138.76 3.69225 138.76 4.14026C141.005 4.03212 143.265 3.80039 145.677 3.38328L145.647 6.58114C143.842 6.79742 141.354 7.06004 138.715 7.19908V10.0571C141.476 9.91804 143.796 9.70175 146.011 9.39278L145.981 12.6679C143.523 12.946 141.4 13.1468 138.776 13.224C138.836 14.2745 138.882 15.4177 138.973 16.53C142.416 17.5342 145.04 19.388 146.618 20.7321L144.646 23.8527C143.174 22.4623 141.309 20.9947 139.125 19.9905C139.155 20.3767 139.155 20.7166 139.155 21.0256C139.155 23.3892 137.38 25.2276 133.77 25.2276C129.402 25.2276 127.111 23.5283 127.111 20.5776C127.111 17.6269 129.644 15.7885 133.861 15.7885C134.438 15.7885 135.014 15.8194 135.56 15.8657C135.499 15.0006 135.484 14.1201 135.454 13.2858H134.028C132.451 13.2858 129.326 13.1468 127.521 12.9305L127.491 9.65541C129.265 9.99528 132.617 10.1807 134.074 10.1807H135.378C135.378 9.26919 135.378 8.26503 135.408 7.32267H134.392C132.678 7.32267 129.508 7.07549 127.703 6.82831L127.627 3.66135C129.599 4.00122 132.708 4.27929 134.377 4.27929H135.439V2.96616C135.439 2.44091 135.378 1.57579 135.272 1.05054H138.958C138.882 1.60669 138.821 2.30187 138.791 3.02796V2.99706ZM133.27 22.0915C134.711 22.0915 135.666 21.6744 135.666 20.0678C135.666 19.7588 135.666 19.3726 135.636 18.8782C134.893 18.7701 134.165 18.6774 133.391 18.6774C131.449 18.6774 130.388 19.4498 130.388 20.4076C130.388 21.4581 131.374 22.107 133.254 22.107L133.27 22.0915Z" fill="black"/>
<path d="M170.553 3.50673C170.553 3.72301 170.553 4.03198 170.522 4.37185C173.283 4.37185 177.029 4.31006 178.44 4.34095L178.41 7.61606C176.772 7.53882 174.238 7.47702 170.522 7.47702C170.522 8.89829 170.553 10.4277 170.553 11.6481C171.205 12.6987 171.539 14.0118 171.539 15.464C171.539 19.0789 169.46 23.6981 162.802 25.5828L159.874 22.6321C162.635 22.0451 165.031 21.1336 166.533 19.4651C166.154 19.5424 165.744 19.6042 165.304 19.6042C163.196 19.6042 160.602 17.8739 160.602 14.4907C160.602 11.3392 163.09 9.28451 166.063 9.28451C166.442 9.28451 166.806 9.31541 167.155 9.36175C167.155 8.74381 167.155 8.11041 167.125 7.49247C162.999 7.55426 158.737 7.70875 155.384 7.90958L155.309 4.54179C158.418 4.54179 163.393 4.43365 167.109 4.37185C167.079 4.01653 167.079 3.73846 167.049 3.50673C166.973 2.36353 166.852 1.42117 166.776 1.0813H170.735C170.674 1.52931 170.568 3.02782 170.537 3.47583L170.553 3.50673ZM166.002 16.5299C167.155 16.5299 168.156 15.6339 167.777 13.193C167.398 12.5596 166.745 12.2197 166.002 12.2197C164.94 12.2197 163.894 12.9767 163.894 14.4443C163.894 15.7266 164.91 16.5299 166.002 16.5299Z" fill="black"/>
<path d="M192.092 21.1338C192.092 23.6056 190.12 25.6448 187.662 25.6448C185.205 25.6448 183.264 23.621 183.264 21.1338C183.264 18.6466 185.251 16.6228 187.662 16.6228C190.074 16.6228 192.092 18.6466 192.092 21.1338ZM190.135 21.1338C190.135 19.7434 189.043 18.6311 187.678 18.6311C186.312 18.6311 185.251 19.7434 185.251 21.1338C185.251 22.5242 186.373 23.6365 187.678 23.6365C188.982 23.6365 190.135 22.5242 190.135 21.1338Z" fill="black"/>
</g>
<defs>
<clipPath id="clip0_1713_12957">
<rect width="191.286" height="26" fill="white" transform="translate(0.805664)"/>
</clipPath>
</defs>
</svg>
